<svg width="208" height="32" viewBox="0 0 208 32" fill="none" xmlns="http://www.w3.org/2000/svg">
    <path d="M0.196023 31V1.90909H10.5653C12.8191 1.90909 14.6894 2.29735 16.1761 3.07386C17.6723 3.85038 18.7898 4.92519 19.5284 6.2983C20.267 7.66193 20.6364 9.23864 20.6364 11.0284C20.6364 12.8087 20.2623 14.3759 19.5142 15.7301C18.7756 17.0748 17.6581 18.1212 16.1619 18.8693C14.6752 19.6174 12.8049 19.9915 10.5511 19.9915H2.69602V16.2131H10.1534C11.5739 16.2131 12.7292 16.0095 13.6193 15.6023C14.5189 15.1951 15.1771 14.6032 15.5938 13.8267C16.0104 13.0502 16.2188 12.1174 16.2188 11.0284C16.2188 9.92992 16.0057 8.97822 15.5795 8.1733C15.1629 7.36837 14.5047 6.75284 13.6051 6.3267C12.715 5.8911 11.5455 5.6733 10.0966 5.6733H4.58523V31H0.196023ZM14.5568 17.875L21.7443 31H16.7443L9.69886 17.875H14.5568ZM31.9858 31.483C30.6032 31.483 29.3532 31.2273 28.2358 30.7159C27.1184 30.1951 26.233 29.4422 25.5795 28.4574C24.9356 27.4725 24.6136 26.2652 24.6136 24.8352C24.6136 23.6042 24.8504 22.5909 25.3239 21.7955C25.7973 21 26.4366 20.3703 27.2415 19.9062C28.0464 19.4422 28.946 19.0919 29.9403 18.8551C30.9347 18.6184 31.9479 18.4384 32.9801 18.3153C34.2869 18.1638 35.3475 18.0407 36.1619 17.946C36.9763 17.8419 37.5682 17.6761 37.9375 17.4489C38.3068 17.2216 38.4915 16.8523 38.4915 16.3409V16.2415C38.4915 15.0009 38.1411 14.0398 37.4403 13.358C36.7491 12.6761 35.7169 12.3352 34.3438 12.3352C32.9138 12.3352 31.7869 12.6525 30.9631 13.2869C30.1487 13.9119 29.5852 14.608 29.2727 15.375L25.2812 14.4659C25.7547 13.1402 26.446 12.0701 27.3551 11.2557C28.2737 10.4318 29.3295 9.83523 30.5227 9.46591C31.7159 9.08712 32.9706 8.89773 34.2869 8.89773C35.1581 8.89773 36.0814 9.00189 37.0568 9.21023C38.0417 9.40909 38.9602 9.77841 39.8125 10.3182C40.6742 10.858 41.3797 11.6297 41.929 12.6335C42.4782 13.6278 42.7528 14.9205 42.7528 16.5114V31H38.6051V28.017H38.4347C38.16 28.5663 37.7481 29.1061 37.1989 29.6364C36.6496 30.1667 35.9441 30.607 35.0824 30.9574C34.2206 31.3078 33.1884 31.483 31.9858 31.483ZM32.9091 28.0739C34.0833 28.0739 35.0871 27.8419 35.9205 27.3778C36.7633 26.9138 37.4025 26.3078 37.8381 25.5597C38.2831 24.8021 38.5057 23.9924 38.5057 23.1307V20.3182C38.3542 20.4697 38.0606 20.6117 37.625 20.7443C37.1989 20.8674 36.7112 20.9763 36.1619 21.071C35.6127 21.1562 35.0777 21.2367 34.5568 21.3125C34.036 21.3788 33.6004 21.4356 33.25 21.483C32.4261 21.5871 31.6733 21.7623 30.9915 22.0085C30.3191 22.2547 29.7794 22.6098 29.3722 23.0739C28.9744 23.5284 28.7756 24.1345 28.7756 24.892C28.7756 25.9432 29.1638 26.7386 29.9403 27.2784C30.7169 27.8087 31.7064 28.0739 32.9091 28.0739ZM57.6001 31.4403C55.4884 31.4403 53.6702 30.9621 52.1456 30.0057C50.6304 29.0398 49.4657 27.7093 48.6513 26.0142C47.8369 24.3191 47.4297 22.3778 47.4297 20.1903C47.4297 17.9744 47.8464 16.0189 48.6797 14.3239C49.513 12.6193 50.6873 11.2888 52.2024 10.3324C53.7176 9.37595 55.5026 8.89773 57.5575 8.89773C59.2147 8.89773 60.692 9.20549 61.9893 9.82102C63.2867 10.4271 64.3331 11.2794 65.1286 12.3778C65.9335 13.4763 66.4117 14.7595 66.5632 16.2273H62.4297C62.2024 15.2045 61.6816 14.3239 60.8672 13.5852C60.0623 12.8466 58.9827 12.4773 57.6286 12.4773C56.4448 12.4773 55.4079 12.7898 54.5178 13.4148C53.6371 14.0303 52.9505 14.911 52.4581 16.0568C51.9657 17.1932 51.7195 18.5379 51.7195 20.0909C51.7195 21.6818 51.9609 23.0549 52.4439 24.2102C52.9268 25.3655 53.6087 26.2604 54.4893 26.8949C55.3795 27.5294 56.4259 27.8466 57.6286 27.8466C58.4335 27.8466 59.1626 27.6998 59.8161 27.4062C60.4789 27.1032 61.0329 26.6723 61.478 26.1136C61.9325 25.5549 62.2498 24.8826 62.4297 24.0966H66.5632C66.4117 25.5076 65.9524 26.767 65.1854 27.875C64.4183 28.983 63.3909 29.8542 62.103 30.4886C60.8246 31.1231 59.3236 31.4403 57.6001 31.4403ZM80.5085 31.4403C78.3589 31.4403 76.5076 30.9811 74.9545 30.0625C73.411 29.1345 72.2178 27.8324 71.375 26.1562C70.5417 24.4706 70.125 22.4962 70.125 20.233C70.125 17.9981 70.5417 16.0284 71.375 14.3239C72.2178 12.6193 73.392 11.2888 74.8977 10.3324C76.4129 9.37595 78.1837 8.89773 80.2102 8.89773C81.4413 8.89773 82.6345 9.10133 83.7898 9.50852C84.9451 9.91572 85.982 10.5549 86.9006 11.4261C87.8191 12.2973 88.5436 13.429 89.0739 14.821C89.6042 16.2036 89.8693 17.8845 89.8693 19.8636V21.3693H72.5256V18.1875H85.7074C85.7074 17.0701 85.4801 16.0805 85.0256 15.2188C84.571 14.3475 83.9318 13.661 83.108 13.1591C82.2936 12.6572 81.3371 12.4062 80.2386 12.4062C79.0455 12.4062 78.0038 12.6998 77.1136 13.2869C76.233 13.8646 75.5511 14.6222 75.0682 15.5597C74.5947 16.4877 74.358 17.4962 74.358 18.5852V21.071C74.358 22.5294 74.6136 23.7699 75.125 24.7926C75.6458 25.8153 76.3703 26.5966 77.2983 27.1364C78.2263 27.6667 79.3106 27.9318 80.5511 27.9318C81.3561 27.9318 82.09 27.8182 82.7528 27.5909C83.4157 27.3542 83.9886 27.0038 84.4716 26.5398C84.9545 26.0758 85.3239 25.5028 85.5795 24.821L89.5994 25.5455C89.2775 26.7292 88.6998 27.7661 87.8665 28.6562C87.0426 29.5369 86.0057 30.2235 84.7557 30.7159C83.5152 31.1989 82.0994 31.4403 80.5085 31.4403ZM97.38 31H92.7209L103.19 1.90909H108.261L118.729 31H114.07L105.846 7.19318H105.619L97.38 31ZM98.1612 19.608H113.275V23.3011H98.1612V19.608ZM138.783 14.5085L134.933 15.1903C134.772 14.6979 134.517 14.2292 134.166 13.7841C133.825 13.339 133.361 12.9744 132.774 12.6903C132.187 12.4062 131.453 12.2642 130.572 12.2642C129.37 12.2642 128.366 12.5341 127.561 13.0739C126.756 13.6042 126.354 14.2907 126.354 15.1335C126.354 15.8627 126.624 16.4498 127.163 16.8949C127.703 17.34 128.574 17.7045 129.777 17.9886L133.243 18.7841C135.25 19.2481 136.747 19.9631 137.732 20.929C138.716 21.8949 139.209 23.1496 139.209 24.6932C139.209 26 138.83 27.1648 138.072 28.1875C137.324 29.2008 136.278 29.9962 134.933 30.5739C133.598 31.1515 132.05 31.4403 130.288 31.4403C127.845 31.4403 125.852 30.9195 124.308 29.8778C122.765 28.8267 121.818 27.3352 121.467 25.4034L125.572 24.7784C125.828 25.8485 126.354 26.6581 127.149 27.2074C127.945 27.7472 128.982 28.017 130.26 28.017C131.652 28.017 132.765 27.7282 133.598 27.1506C134.431 26.5634 134.848 25.8485 134.848 25.0057C134.848 24.3239 134.592 23.7509 134.081 23.2869C133.579 22.8229 132.807 22.4725 131.766 22.2358L128.072 21.4261C126.036 20.9621 124.531 20.2235 123.555 19.2102C122.589 18.197 122.107 16.9138 122.107 15.3608C122.107 14.0729 122.466 12.946 123.186 11.9801C123.906 11.0142 124.9 10.2614 126.169 9.72159C127.438 9.17235 128.892 8.89773 130.53 8.89773C132.888 8.89773 134.744 9.40909 136.098 10.4318C137.452 11.4451 138.347 12.804 138.783 14.5085ZM160.228 14.5085L156.379 15.1903C156.218 14.6979 155.962 14.2292 155.612 13.7841C155.271 13.339 154.807 12.9744 154.219 12.6903C153.632 12.4062 152.898 12.2642 152.018 12.2642C150.815 12.2642 149.811 12.5341 149.006 13.0739C148.201 13.6042 147.799 14.2907 147.799 15.1335C147.799 15.8627 148.069 16.4498 148.609 16.8949C149.148 17.34 150.02 17.7045 151.222 17.9886L154.688 18.7841C156.696 19.2481 158.192 19.9631 159.177 20.929C160.162 21.8949 160.654 23.1496 160.654 24.6932C160.654 26 160.275 27.1648 159.518 28.1875C158.77 29.2008 157.723 29.9962 156.379 30.5739C155.043 31.1515 153.495 31.4403 151.734 31.4403C149.29 31.4403 147.297 30.9195 145.754 29.8778C144.21 28.8267 143.263 27.3352 142.913 25.4034L147.018 24.7784C147.273 25.8485 147.799 26.6581 148.594 27.2074C149.39 27.7472 150.427 28.017 151.705 28.017C153.097 28.017 154.21 27.7282 155.043 27.1506C155.877 26.5634 156.293 25.8485 156.293 25.0057C156.293 24.3239 156.038 23.7509 155.526 23.2869C155.024 22.8229 154.253 22.4725 153.211 22.2358L149.518 21.4261C147.482 20.9621 145.976 20.2235 145.001 19.2102C144.035 18.197 143.552 16.9138 143.552 15.3608C143.552 14.0729 143.912 12.946 144.631 11.9801C145.351 11.0142 146.345 10.2614 147.614 9.72159C148.883 9.17235 150.337 8.89773 151.975 8.89773C154.333 8.89773 156.189 9.40909 157.543 10.4318C158.897 11.4451 159.792 12.804 160.228 14.5085ZM165.324 31V9.18182H169.571V31H165.324ZM167.469 5.81534C166.73 5.81534 166.096 5.56913 165.565 5.0767C165.045 4.57481 164.784 3.97822 164.784 3.28693C164.784 2.58617 165.045 1.98958 165.565 1.49716C166.096 0.995264 166.73 0.744318 167.469 0.744318C168.207 0.744318 168.837 0.995264 169.358 1.49716C169.888 1.98958 170.153 2.58617 170.153 3.28693C170.153 3.97822 169.888 4.57481 169.358 5.0767C168.837 5.56913 168.207 5.81534 167.469 5.81534ZM191.634 14.5085L187.785 15.1903C187.624 14.6979 187.368 14.2292 187.018 13.7841C186.677 13.339 186.213 12.9744 185.626 12.6903C185.039 12.4062 184.305 12.2642 183.424 12.2642C182.221 12.2642 181.218 12.5341 180.413 13.0739C179.608 13.6042 179.205 14.2907 179.205 15.1335C179.205 15.8627 179.475 16.4498 180.015 16.8949C180.555 17.34 181.426 17.7045 182.629 17.9886L186.094 18.7841C188.102 19.2481 189.598 19.9631 190.583 20.929C191.568 21.8949 192.06 23.1496 192.06 24.6932C192.06 26 191.682 27.1648 190.924 28.1875C190.176 29.2008 189.129 29.9962 187.785 30.5739C186.45 31.1515 184.901 31.4403 183.14 31.4403C180.697 31.4403 178.703 30.9195 177.16 29.8778C175.616 28.8267 174.669 27.3352 174.319 25.4034L178.424 24.7784C178.68 25.8485 179.205 26.6581 180.001 27.2074C180.796 27.7472 181.833 28.017 183.112 28.017C184.504 28.017 185.616 27.7282 186.45 27.1506C187.283 26.5634 187.7 25.8485 187.7 25.0057C187.7 24.3239 187.444 23.7509 186.933 23.2869C186.431 22.8229 185.659 22.4725 184.617 22.2358L180.924 21.4261C178.888 20.9621 177.382 20.2235 176.407 19.2102C175.441 18.197 174.958 16.9138 174.958 15.3608C174.958 14.0729 175.318 12.946 176.038 11.9801C176.757 11.0142 177.752 10.2614 179.021 9.72159C180.29 9.17235 181.743 8.89773 183.381 8.89773C185.739 8.89773 187.595 9.40909 188.95 10.4318C190.304 11.4451 191.199 12.804 191.634 14.5085ZM206.915 9.18182V12.5909H194.997V9.18182H206.915ZM198.193 3.95455H202.44V24.5938C202.44 25.4176 202.563 26.0379 202.81 26.4545C203.056 26.8617 203.373 27.1411 203.761 27.2926C204.159 27.4347 204.59 27.5057 205.054 27.5057C205.395 27.5057 205.693 27.482 205.949 27.4347C206.205 27.3873 206.403 27.3494 206.545 27.321L207.312 30.8295C207.066 30.9242 206.716 31.0189 206.261 31.1136C205.807 31.2178 205.239 31.2746 204.557 31.2841C203.439 31.303 202.398 31.1042 201.432 30.6875C200.466 30.2708 199.685 29.6269 199.088 28.7557C198.491 27.8845 198.193 26.7907 198.193 25.4744V3.95455Z" fill="#0066FF" />
</svg>